<svg viewBox="0 0 2876 1876" xmlns="http://www.w3.org/2000/svg"><path d="M0 1566v-310h2876v620H0zm245 0v-149h-84v298h84zm141 69.3v-79.6l1.7 1.6 1.8 1.6 64.5 78 64.5 78h34.7l34.8.1v-298h-82v159h-1.7l-65.8-79.5-65.9-79.5H304v298h82v-79.7zm344-69.3v-149h-83v298h83zm235 33v-116h92v-66H790v66h91v232h84zm234-33v-149h-83v298h83zm149.8 141.7l3-7.2 8.7-21.8 8.8-21.7h127.4l7 17.2 7 17.3 4.8 11.7 4.7 11.8h86.7l-3.5-7.8-3.4-7.7-62.5-141-62.4-141-41.3-.3-41.3-.2-65 147.2-64.9 147.3-.8 1.7-1 1.8h85zm45.6-113.5l.6-1.7 18.7-46.7 18.8-46.8h1.1l19.2 47.7 19.2 47.8v1.5h-78.3l.7-1.8zM2029 1566v-149h-83v298h83zm330 .9l63.5-148.1.3-1 .3-.8-41.2.2-41.3.3-41.2 96.8-41.2 96.8-.7.2-.7.2-40.6-97.3-40.5-97.2h-90l.5 1.2.5 1.3 61.5 144 61.5 144 1.6 3.7 1.6 3.8h82.6zm357 116.1v-32h-157v-56h133v-62h-133v-52h151v-64h-234v298h240zm-920-85v-116h91v-66h-267v66h92v232h84zM0 548.5V0h2557v1097H0zm2249.7 398l11.8-1.6 10.5-2.6 10.5-2.5 9-3.3 9-3.2 7.5-3.6 7.5-3.6 8-4.8 8-4.8 7.6-5.7 7.6-5.7 8-8 8.1-8 6.3-7.8 6.2-7.8 4.1-6.5 4.2-6.5 3.6-6.5 3.6-6.5 4-9.5 4-9.5 3.7-12 3.6-12 2.6-14.5 2.6-14.5v-25l.1-25-1.8-11.5-1.8-11.4-3.3-13.1-3.4-13.1-3.7-9.5-3.7-9.4-3.9-7.8-3.9-7.7-4-6.8-4.2-6.7-5.5-7.3-5.5-7.3-7.6-8-7.5-8-7-5.8-7.1-5.8-8-5.3-8-5.3-10.5-5.3-10.5-5.3-12-4-12-4.2-12-2.4-12-2.4-11-1-10.9-1.1h-20.1l-11 1-11 1-12.3 2.5-12.2 2.5-10.7 3.6-10.7 3.6-9 4.2-9.1 4.2-8.5 5.3-8.5 5.3-8 6.3-8.1 6.3-10.2 10.7-10.3 10.7-7.8 11.6-7.7 11.7-5.1 10.5-5.1 10.5-3.7 10.4-3.6 10.4-2 8-2.1 8.2-2 11-2 11-.5 21.2-.6 21.1 1.2 11.4 1.1 11.3 2.5 12.2 2.5 12.2 3.9 12 3.9 12 5.5 11.5 5.6 11.7 6.3 9.7 6.4 9.7 7.9 9.4 7.8 9.3 8.6 7.5 8.5 7.5 10.4 7 10.4 7 10.2 4.8 10 4.8 8.9 3.1 8.8 3 8.2 2.2 8.2 2 12 1.9 12 1.8 19.2.1 19.2.1 11.8-1.5zm-46.2-98.2l-7-1.4-5.8-2.4-5.8-2.4-7-4.6-6.9-4.6-6.8-7.4-6.9-7.5-4.3-7.6-4.4-7.7-3.2-8.6-3.3-8.6-1.8-8.5-1.8-8.5v-40l2.4-9.5 2.3-9.5 3.3-8 3.3-8.2 3.2-5.4 3.2-5.4 5.4-6.6 5.3-6.6 5.8-4.5 5.8-4.5 4.5-2.5 4.5-2.6 7.2-2.6 7.2-2.5 8.8-1.1 8.8-1.1 7 .6 7 .6 7.4 2 7.4 2 7.9 4 7.8 4.2 7.6 7 7.5 7 4.3 6.1 4.3 6.1 3.2 6.3 3.2 6.4 2.9 8.8 2.9 8.9 1.5 10.4 1.6 10.5v21.1l-1.1 7.6-1 7.7-2 7.3-1.8 7.4-2.7 6.8-2.7 6.8-4 6.7-3.8 6.8-5 6-5 6-5.8 4.6-5.6 4.5-9 4.4-9 4.4-7.7 1.5-7.8 1.6h-9.2l-9.3-.2-7-1.5zM550 811.8l77.5-125.1 9.8-16.1 9.8-16.1 11.5-20 11.5-20 10.2-20.5 10.3-20.5 6.7-16 6.8-16 5.4-16 5.4-16 3.5-13.5 3.4-13.5 2.5-15 2.5-15L728 437l1.2-15.5-.6-16-.7-16-2-14-2-14-2.4-10-2.4-10-3.1-9.8-3.2-9.9-4.4-10.6-4.5-10.7-4.6-8.5-4.5-8.5-7.5-11.3-7.6-11.4-7.3-8.9-7.4-8.8-9.3-9.2-9.2-9.2-8-6.4-8-6.5-13.5-9-13.5-9-16-7.8-16-7.9-12.7-4.5-12.5-4.5-10.9-3-10.8-3-12.5-2.5-12.5-2.5-13-1.8-13-1.7h-30l-30-.1-13.5 1.8-13.5 1.8-14.1 3-14.1 2.9-10.3 3-10.4 3.1-11 4-11.1 4.1-12.3 5.8-12.2 5.8-11.8 7-11.7 7-12.5 9.3-12.5 9.3-14.6 14.5-14.6 14.6-8.5 11.5-8.6 11.5-6.7 11.3-6.7 11.2-5.4 11.8-5.3 11.7-4 12.1-4 12.1-2.5 11.4-2.6 11.4-1.7 12.5-1.7 12.5v42l2.3 14.3 2.1 14.3 3 11.2 2.8 11.2 3.2 9 3.1 9 6.3 13 6.2 13 5.2 8.4 5.3 8.4 6.9 9.2 7 9.3 9.6 10.2 9.6 10.1 9.6 8 9.6 8 11 7.3 11.1 7.4 11.4 6 11.5 5.9 11.5 4.6 11.5 4.5 12.6 3.5 12.7 3.5 12.8 2.3 12.9 2.3h53l10-1.8 10-1.8 9.4-2.5 9.4-2.5.8 1.2.8 1.3-2.2 3.6-2.2 3.5-88.8 143.3L278 936v.9h194.5zM425 517.4l-2.5-.4-7.5-1.1-7.5-1.1-10.1-3.3-10.2-3.3-5.3-2.7-5.4-2.7-8-5.3-8-5.3-7.9-7.7-7.7-7.8-6-9-5.8-8.9-3.2-7.6-3.1-7.6-2.5-9.5-2.5-9.6-.6-12.2-.5-12.3 1.2-9.1 1.3-9.1 1.7-6.2 1.8-6.1 3.3-8 3.3-7.9 5.9-8.7 5.8-8.8 7.4-7.4 7.3-7.4 6.4-4.6 6.4-4.5 6.6-3.6 6.6-3.7 8.3-3 8.4-3 8-2 8-2 15.1-.6 15.1-.6 10.3 1.7 10.3 1.8 7.6 2.4 7.6 2.5 8 4 7.8 4 6 4.1 6.1 4.1 7.8 7.5 7.9 7.5 4.9 6.6 4.9 6.6 4 7.5 4 7.5 2.7 7 2.6 7 1.9 8.5 1.9 8.5.6 9 .7 9.1-1.2 10.3-1.2 10.4-2.5 8.6-2.5 8.6-3.8 7.6-3.8 7.7-4.2 6-4.1 6.2-6 6.4-6 6.4-5.2 4-5.2 4-6.8 4.1-6.7 4-8.7 3.7-8.6 3.6-10.6 2.4-10.6 2.5-15.5.4-15.5.4zm792.3 287.5l81.8-132 9.7-16.2 9.7-16.2 7.9-14 7.8-14 8.3-16.4 8.3-16.3 6.4-14.7 6.4-14.6 5.1-13.8 5.2-13.7 4.4-15.3 4.4-15.2 2.6-12.8 2.6-12.8 1.7-12.2 1.7-12.2v-54l-2.3-14.4-2.2-14.3-3.4-13.3-3.4-13.3-3.6-9.8-3.7-9.9-7.3-15-7.3-15-7.5-11.2-7.5-11.2-6.3-7.8-6.4-7.8-10.5-10.5-10.5-10.5-8.5-6.9-8.5-6.8-12-8-12-8-17-8.3-17-8.4-9.5-3.5-9.5-3.4-12-3.7-12-3.6-14.5-3-14.5-2.8-12.5-1.8-12.5-1.7h-62l-12.9 1.8-12.8 1.7-13.8 2.9-13.8 2.8-12.3 3.7-12.4 3.6-13 5.1-13 5.1-12 6.1-12 6.2-9.5 5.9-9.5 6-12 9-12 9-13.6 13.5-13.5 13.5-9 12-9 12-5.3 8.7-5.3 8.8-6.3 13.2-6.4 13.3-4.5 13.5-4.5 13.5-2.5 11.5-2.5 11.5-1.6 12.3-1.5 12.4v38.4l1.5 12.4 1.5 12.5 2.5 11 2.5 10.9 4.5 13.5 4.5 13.4 6.4 13.1 6.4 13 8 12 8 12 9.4 11 9.4 11 8.5 7.8 8.5 7.8 6 4.6 5.9 4.7 11.9 7.8 11.8 7.7 12.2 6 12.2 6 9.4 3.7 9.5 3.7 12.2 3.3 12.2 3.4 12.8 2.3 12.9 2.3h52l10.6-1.8 10.7-1.8 9.2-2.5 9.3-2.5 1 1 1.1 1.1-1 1.8-1.1 1.7-89.5 144.5-89.5 144.5-.7 1.2-.8 1.3h194.8l81.8-132zm-133.8-288l-6.9-1-8.1-2-8.1-2-7.5-3-7.5-3-5.5-3.1-5.5-3.1-6.5-4.8-6.5-4.7-7.1-7.4-7-7.3-4.1-6-4-6-3.3-6.5-3.3-6.5-2.4-7-2.4-7-1.5-7-1.5-6.8-.6-10.1-.6-10.1 1.1-9 1.2-9 2-8 2.1-8 4.3-9.2 4.4-9.2 3.8-5.8 3.8-5.8 8.6-8.9 8.5-8.8 9.5-6.3 9.5-6.4 6.7-3 6.7-3 8.1-2.6 8.1-2.5 9.2-1.5 9.2-1.5h23l9 1.5 9 1.4 7 2.2 7 2 9 4.4 9.1 4.4 8.2 6 8.2 6 6.5 6.8 6.5 6.7 5 7.3 5 7.3 4 7.7 3.8 7.8 2.6 8 2.6 8 1.6 9.5 1.6 9.5-.6 13-.5 13-2.5 9.7-2.5 9.7-4 8.4-3.9 8.4-4.3 6.4-4.3 6.4-7 7.3-7.1 7.4-6.5 4.8-6.5 4.8-7.5 4-7.5 4-9 3-9 3-8 1.7-8 1.7-15 .3-15 .4zm931.9 33l253-387.2.3-.9.3-.8h-106.7l-253.1 387.4-253.1 387.4v1.2h106.5zm-290.4 0l10.4-1 9.6-2 9.5-1.9 9-2.6 8.9-2.5 10.8-4.6 10.8-4.5 10.2-6.2 10.2-6.1 6.5-5 6.5-4.8 11.5-11.6 11.5-11.6 6.5-9.3 6.5-9.2 5.7-10.7 5.7-10.7 4.1-10.6 4.1-10.5 3.4-13 3.3-13 1.6-10.5 1.6-10.5.6-17.5.6-17.5-1.2-12.5-1.2-12.5-2.5-13-2.5-12.9-4-12-3.9-12.1-6-12.3-5.9-12.3-5.6-8.7-5.7-8.7-5.8-7-5.8-7.1-10.2-9.8-10.3-9.7-11-7.4-11.2-7.4-11.5-5.5-11.4-5.4-11-3.5-11.1-3.6-10-2-10-2-9.6-1-9.8-1.1H1686l-12.3 1.6-12.3 1.6-13 3.3-13 3.3-8 3.2-8 3.1-9 4.5-9 4.6-9.5 6.3-9.5 6.4-8.4 7.3-8.3 7.3-7 8-7 8-7 10.4-7 10.5-5.9 12-5.8 12.1-4 12.2-4 12.1-2.6 12.4-2.4 12.3-1 9.7-1.1 9.7v34.2l1 9.8 1 9.7 2 10 2 10 3 10.2 3 10.3 4.5 10.7 4.5 10.8 5.6 9.9 5.6 9.9 7.3 9.6 7.2 9.6 8.9 8.9 8.9 8.8 9 6.7 9 6.7 6.1 3.8 6.2 3.7 9.5 4.4 9.5 4.5 12 4 11.9 3.9 10.9 2 10.9 2.1 7.5.9 7.5.8 14.6.2 14.7.1zm-34.6-97.8l-5-.9-4.5-1.2-4.5-1.1-8-3.9-8-3.8-7-5.9-6.9-5.8-5.3-7-5.4-7-4.4-9-4.4-9-2-7-2.1-7-1.5-8.9-1.5-8.9v-27.2l1.5-9.5 1.5-9.4 3-8.8 3-8.8 2.6-5.2 2.6-5.3 5-7.3 5.1-7.3 6.2-5.7 6.2-5.7 5.6-3.4 5.6-3.3 6.1-2.5 6.1-2.4 8.2-1.6 8.2-1.5 10 .5 10 .6 7.4 2.1 7.5 2.1 6.6 3.5 6.6 3.4 6.4 5.4 6.5 5.3 4.8 6.1 4.7 6.1 4.5 8.4 4.5 8.4 2 5.9 2 5.9 2 8.5 2 8.5.6 14.5.6 14.5-1.7 11.3-1.6 11.3-3 8.8-2.8 9-3.2 6.3-3.2 6.3-3.8 5.5-3.7 5.5-5.6 5.7-5.6 5.7-6 4.1-6.2 4.2-5.2 2.2-5.1 2.3-6.5 1.7-6.5 1.7-10 .4-10 .4-5-.8zm1025.5 96.4V0h160v1097h-160z" fill="#fefefe"/><path d="M-2602.4-1864.7v-1169.5h3307v2339h-3307zm3088 630.5v-310h-2876v620h2876zm-2715 0v-149h84v298h-84zm143 0v-149h68.7l65.8 79.5 65.8 79.5h1.7v-159h82v298h-34.8l-34.7-.1-64.5-78-64.5-78-1.8-1.6-1.7-1.6v159.3h-82v-149zm343 0v-149h83v298h-83zm234 33v-116h-91v-66h267v66h-92v232h-84zm235-33v-149h83v298h-83zm145.8 147.3l.9-1.8 64.9-147.3 64.9-147.2 41.3.2 41.3.3 62.5 141 62.4 141 3.5 7.8 3.4 7.7h-86.7l-4.7-11.8-4.7-11.7-7-17.3-7-17.2h-127.5l-8.7 21.8-8.8 21.7-3 7.3-3 7.2h-84.8zm210.2-118v-.8l-19.2-47.8-19.2-47.7h-1.1l-18.7 46.8-18.8 46.7-.6 1.8-.6 1.7h78.2v-.7zm474-29.3v-149h83v298h-83zm265.3 145.3l-1.5-3.8-61.5-144-61.5-144-.5-1.3-.5-1.2h90l40.5 97.3 40.5 97.2.7-.2.8-.2 41.2-96.8 41.1-96.8 41.3-.3 41.3-.2-.4.9-.3.9-63.5 148-63.5 148.2h-82.5zm264.7-145.3v-149h234v64h-151v52h133v62h-133v56h157v64h-240zm-764 32v-116h-92v-66h267v66h-91v232h-84zm845-1049.5v-548.5h-2557v1097h2557zm-369.5 397.5l-12-1.8-8.2-2.1-8.2-2.1-8.8-3.1-8.8-3-10.1-5-10.1-4.8-10.4-7-10.4-6.9-8.6-7.5-8.5-7.5-7.9-9.3-7.9-9.4-6.3-9.7-6.4-9.7-5.5-11.7-5.6-11.6-3.9-12-3.9-11.9-2.5-12.2-2.4-12.2-1.2-11.3-1.2-11.4.6-21.1.6-21.2 2-11 1.9-11 2-8.1 2.2-8.1 3.6-10.4 3.6-10.4 5-10.5 5.2-10.5 7.8-11.6 7.8-11.7 10.2-10.7 10.2-10.7 8.1-6.3 8-6.3 8.5-5.3 8.5-5.3 9-4.2 9.1-4.2 10.7-3.6 10.7-3.6 12.2-2.5 12.3-2.4 11-1 11-1.1h20.2l10.9 1 10.9 1.1 12 2.4 12 2.4 12 4.1 12 4.1 10.6 5.3 10.5 5.3 8 5.3 7.9 5.3 7 5.8 7.1 5.7 7.6 8 7.5 8 5.5 7.4 5.5 7.3 4.1 6.7 4.2 6.8 3.9 7.7 3.8 7.8 3.7 9.4 3.8 9.5 3.3 13 3.4 13.2 1.8 11.4 1.8 11.5v25l-.2 25-2.6 14.5-2.6 14.5-3.6 12-3.6 12-4 9.5-4.1 9.5-3.6 6.5-3.6 6.5-4.1 6.5-4.2 6.5-6.2 7.8-6.2 7.8-8.1 8-8.1 8-7.6 5.7-7.6 5.7-8 4.8-8 4.8-7.5 3.6-7.5 3.6-9 3.2-9 3.3-10.5 2.5-10.5 2.6-11.8 1.6-11.8 1.5h-19.2l-19.2-.2-12-1.8zm49.3-97.6l7.7-1.5 9-4.4 9-4.4 5.7-4.5 5.7-4.5 5-6 5-6 4-6.8 3.8-6.8 2.7-6.8 2.7-6.8 1.9-7.4 1.9-7.3 1-7.7 1.1-7.6v-21.1l-1.6-10.5-1.5-10.4-2.9-8.9-2.9-8.8-3.2-6.4-3.1-6.3-4.4-6.1-4.3-6-7.5-7.1-7.5-7-7.9-4.1-7.8-4.1-7.5-2-7.4-2-7-.6-7-.6-8.8 1-8.8 1.2-7.2 2.5-7.2 2.6-4.5 2.6-4.5 2.5-5.8 4.5-5.7 4.5-5.4 6.6-5.4 6.6-3.2 5.4-3.2 5.5-3.3 8-3.3 8.1-2.3 9.5-2.3 9.5v20l-.1 20 1.8 8.5 1.9 8.5 3.2 8.6 3.2 8.6 4.4 7.7 4.4 7.6 6.8 7.5 6.9 7.4 7 4.6 6.8 4.6 5.9 2.4 5.8 2.4 7 1.4 6.9 1.5 9.3.1 9.3.1 7.7-1.6zm-1958.8 88.2v-.5l88.8-143.3 88.8-143.3 2.1-3.5 2.2-3.6-.8-1.3-.8-1.2-9.4 2.5-9.4 2.5-10 1.8-10 1.7h-53l-12.8-2.2-12.9-2.3-12.6-3.5-12.7-3.5-11.5-4.5-11.5-4.6-11.4-6-11.5-5.9-11-7.4-11.1-7.4-9.6-8-9.5-8-9.7-10.1-9.7-10.2-7-9.3-6.9-9.2-5.2-8.4-5.3-8.4-6.2-13-6.2-13-3.2-9-3.1-9-3-11.2-2.8-11.2-2.2-14.3-2.2-14.3v-42l1.7-12.5 1.7-12.5 2.5-11.4 2.6-11.4 4-12 4-12.2 5.3-11.7 5.3-11.8 6.7-11.2 6.8-11.3 8.5-11.5 8.5-11.5 14.6-14.6 14.6-14.5 12.5-9.4 12.5-9.3 11.8-7 11.7-7 12.3-5.7 12.2-5.8 11-4.1 11.2-4 10.3-3.1 10.3-3 14.1-3 14.1-2.8 13.5-1.9 13.5-1.8h60l13 1.8 13 1.8 12.5 2.5 12.5 2.5 10.9 3 10.8 3 12.7 4.5 12.6 4.6 16 7.8 16 7.8 13.5 9 13.5 9 8 6.5 8 6.5 9.3 9.1 9.2 9.2 7.4 8.8 7.4 9 7.5 11.3 7.5 11.3 4.6 8.5 4.5 8.5 4.5 10.7 4.5 10.6 3.1 9.9 3.2 9.8 2.3 10 2.4 10 2 14 2 14 .7 16 .7 16-1.3 15.5-1.2 15.5-2.5 15-2.6 15-3.4 13.5-3.4 13.5-5.5 16-5.4 16-6.7 16-6.8 16-10.2 20.5-10.3 20.5-11.4 20-11.5 20-9.9 16-9.8 16.2-77.5 125.1-77.5 125.2h-194.4zm191.1-422l10.6-2.4 8.7-3.6 8.7-3.6 6.7-4 6.7-4.2 5.2-4 5.3-4 6-6.4 6-6.4 4-6.1 4.2-6.1 3.9-7.7 3.8-7.6 2.5-8.6 2.5-8.6 1.2-10.4 1.2-10.3-.7-9-.7-9.1-1.9-8.5-1.8-8.5-2.7-7-2.6-7-4-7.5-4-7.5-5-6.6-4.9-6.6-7.8-7.5-7.9-7.5-6-4-6-4.2-8-4-7.9-4-7.6-2.5-7.5-2.4-10.3-1.8-10.3-1.7-15.1.6-15.1.6-8 2-8 2-8.4 3-8.3 3-6.7 3.7-6.6 3.6-6.4 4.5-6.4 4.6-7.3 7.4-7.4 7.4-5.8 8.8-5.9 8.7-3.3 8-3.3 7.9-1.7 6.1-1.8 6.2-1.2 9.1-1.3 9.1.6 12.3.6 12.2 2.4 9.6 2.5 9.5 3.2 7.6 3.1 7.6 6 9 5.8 9 7.8 7.7 7.7 7.7 8 5.3 8.1 5.3 5.4 2.7 5.4 2.7 10 3.3 10.2 3.3 7.5 1 7.5 1.2 2.5.4 2.5.5 15.5-.4 15.5-.4zm472.5 421.1l.7-1.2 89.5-144.5 89.5-144.5 1-1.7 1.1-1.8-1-1-1-1-9.3 2.4-9.3 2.5-10.6 1.8-10.7 1.8h-52l-12.8-2.3-12.9-2.3-12.2-3.4-12.2-3.3-9.4-3.7-9.5-3.7-12.2-6-12.2-6-11.8-7.7-11.8-7.8-6-4.7-5.9-4.6-8.5-7.8-8.5-7.7-9.4-11-9.4-11-8-12-8-12-6.4-13-6.4-13.2-4.5-13.4-4.5-13.5-2.4-11-2.5-10.9-1.6-12.5-1.5-12.4v-38.4l1.6-12.4 1.5-12.3 2.6-11.5 2.5-11.5 4.5-13.5 4.4-13.5 6.4-13.2 6.4-13.3 5.2-8.7 5.3-8.8 9-12 9-12 13.6-13.5 13.5-13.6 12-9 12-9 9.5-5.9 9.5-6 12-6 12-6.2 13-5 13-5.2 12.4-3.6 12.4-3.7 13.8-2.8 13.8-2.9 12.8-1.7 12.8-1.8h62l12.5 1.7 12.5 1.8 14.5 2.9 14.6 3 12 3.5 11.9 3.7 9.5 3.4 9.5 3.5 17 8.4 17 8.4 12 8 12 8 8.5 6.7 8.5 6.9 10.5 10.5 10.5 10.5 6.4 7.8 6.4 7.8 7.4 11.2 7.5 11.2 7.3 15 7.4 15 3.6 9.9 3.6 9.8 3.4 13.3 3.4 13.3 2.3 14.3 2.2 14.4v54l-1.7 12.2-1.7 12.2-2.6 12.8-2.6 12.8-4.4 15.2-4.4 15.3-5.1 13.7-5.1 13.8-6.5 14.6-6.4 14.7-8.3 16.3-8.3 16.4-7.8 14-7.8 14-9.7 16.2-9.8 16.2-81.8 132-81.8 132.1h-194.6l.7-1.3zm186.9-420.2l8-1.6 9-3 9-3 7.5-4 7.5-4 6.5-4.9 6.5-4.8 7-7.4 7.1-7.3 4.3-6.4 4.4-6.4 3.9-8.4 4-8.4 2.4-9.7 2.5-9.7.6-13 .5-13-1.6-9.5-1.5-9.5-2.6-8-2.6-8-4-7.8-3.8-7.7-5-7.3-5-7.3-6.6-6.7-6.5-6.7-8.2-6-8.2-6.1-9-4.4-9.1-4.3-7-2.1-6.9-2.2-9-1.4-9.1-1.5h-23l-9.2 1.5-9.1 1.5-8.1 2.5-8.1 2.6-6.8 3-6.7 3-9.5 6.4-9.5 6.3-8.5 8.8-8.5 8.9-3.8 5.8-3.9 5.8-4.3 9.2-4.4 9.2-2 8-2.1 8-1.1 9-1.1 9 .6 10 .6 10.2 1.4 6.9 1.5 6.9 2.4 7 2.4 7 3.3 6.5 3.3 6.5 4 6 4 6 7.1 7.3 7.1 7.4 6.5 4.7 6.5 4.8 5.5 3 5.5 3.2 7.5 3 7.5 3 8.1 2 8.2 2 6.8 1 6.9 1 15-.4 15-.3zm527.5 421v-.7l253.1-387.4 253.1-387.4h107l-.4.9-.3.8-253 387.2-253 387.1h-106.5zm22-386.6l-7.5-.9-10.9-2-10.9-2.1-12-4-11.9-3.9-9.5-4.4-9.4-4.5-6.2-3.7-6.2-3.7-9-6.8-9-6.7-8.9-8.8-8.8-8.9-7.3-9.6-7.2-9.6-5.6-10-5.6-9.8-4.5-10.8-4.5-10.7-3-10.3-3-10.2-2-10-2-10-1-9.7-1.1-9.7v-34.1l1-9.8 1.1-9.7 2.5-12.3 2.4-12.4 4-12.1 4.1-12.2 5.9-12 5.8-12.1 7-10.5 7-10.4 7-8 7-8 8.4-7.3 8.3-7.3 9.5-6.4 9.5-6.3 9-4.5 9-4.6 8-3.1 8-3.2 13-3.3 13-3.3 12.3-1.6 12.4-1.6h30.9l9.7 1 9.7 1.1 10 2 10 2 11 3.6 11 3.5 11.5 5.4 11.4 5.5 11.2 7.4 11 7.4 10.3 9.7 10.3 9.8 5.7 7 5.8 7.1 5.7 8.7 5.7 8.7 6 12.3 5.8 12.3 4 12 4 12.1 2.5 13 2.5 12.9 1.2 12.5 1.2 12.5-.6 17.5-.6 17.5-1.6 10.5-1.7 10.5-3.3 13-3.3 13-4.2 10.5-4.1 10.6-5.7 10.7-5.7 10.7-6.5 9.2-6.5 9.3-11.5 11.5-11.5 11.6-6.5 4.9-6.5 4.9-10.2 6.1-10.2 6.2-10.8 4.5-10.8 4.6-9 2.6-8.8 2.5-9.6 2-9.6 1.9-10.4 1-10.3 1.1-14.7-.1-14.6-.2zm44-99.5l6.5-1.7 5.2-2.3 5.1-2.2 6.2-4.2 6-4.1 5.7-5.7 5.5-5.7 3.8-5.5 3.7-5.5 3.2-6.3 3.2-6.4 3-8.9 2.8-8.8 1.7-11.3 1.7-11.3-.6-14.5-.7-14.5-2-8.5-1.9-8.5-2-5.9-2-5.9-4.6-8.4-4.4-8.3-4.8-6.2-4.8-6-6.4-5.4-6.5-5.3-6.6-3.5-6.5-3.5-7.5-2.1-7.5-2.1-10-.6-10-.5-8.2 1.5-8.2 1.6-6 2.4-6.2 2.5-5.5 3.3-5.6 3.4-6.2 5.7-6.3 5.7-5 7.3-5 7.3-2.7 5.3-2.6 5.2-3 8.8-3 8.8-1.5 9.4-1.5 9.5v27.2l1.5 9 1.5 8.8 2.1 7 2 7 4.5 9 4.4 9 5.3 7 5.4 7 6.9 5.8 7 5.9 8 3.8 8 3.9 4.4 1.2 4.5 1.1 5 .9 5 .8 10-.4 10-.4 6.5-1.7zm1154 98.1v-548.5h-160v1097h160z" fill="#fff"/></svg>